# xmcd CD database file
#
# Track frame offsets:
#	150
#	13743
#	25569
#	37469
#	50072
#	62154
#	76763
#	89523
#	102455
#	114774
#	130076
#	144578
#	157784
#	170890
#	184959
#	198532
#
# Disc length: 2798 seconds
#
# Revision: 0
# Processed by: cddbd v1.5.2PL0 Copyright (c) Steve Scherf et al.
# Submitted via: CDex 1.51
#
DISCID=dd0aec10
DTITLE=Charles Ray - I got a woman
DYEAR=2007
DGENRE=Blues
TTITLE0=The midnight hour
TTITLE1=Roll with me baby
TTITLE2=The sun's gonna shine again
TTITLE3=Jumpin' in the morning
TTITLE4=Mess around
TTITLE5=Funny but I still love you
TTITLE6=Feelin' sad
TTITLE7=Heartbreaker
TTITLE8=It should have been me
TTITLE9=Sinner's prayer
TTITLE10=Losing hand
TTITLE11=Don't you know
TTITLE12=I got a woman
TTITLE13=Come back baby
TTITLE14=A fool for you
TTITLE15=This little girl of mine
EXTD=YEAR: 2007
EXTT0=
EXTT1=
EXTT2=
EXTT3=
EXTT4=
EXTT5=
EXTT6=
EXTT7=
EXTT8=
EXTT9=
EXTT10=
EXTT11=
EXTT12=
EXTT13=
EXTT14=
EXTT15=
PLAYORDER=
